<svg xmlns="http://www.w3.org/2000/svg" viewBox="0 0 404.11 83.05"><defs><style>.cls-2{fill:#999}</style></defs><g id="图层_2" data-name="图层 2"><g id="图层_1-2" data-name="图层 1"><path d="M87.4 35.77A23.55 23.55 0 0 0 79.2 31a28.73 28.73 0 0 0-9.15-1.51 24.1 24.1 0 0 0-12.2 2.9l-.44.27a30.45 30.45 0 0 1 4-7c7.77-10 18.62-10.89 23.8-11L89.32.26c-4.41-.37-25.95-2.5-40.59 16.47-6.48 8.38-9.09 18.93-10 27.07l-.06.56a55.37 55.37 0 0 0-.18 11.34 40.83 40.83 0 0 0 1.75 9.35A26.76 26.76 0 0 0 46 75.26a22.81 22.81 0 0 0 9.26 6A35.72 35.72 0 0 0 67 83.05a31.78 31.78 0 0 0 10.3-1.73 28 28 0 0 0 9.09-5.12 25.48 25.48 0 0 0 6.49-8.58 27.36 27.36 0 0 0 2.47-11.86 29.54 29.54 0 0 0-2.15-11.7 23.55 23.55 0 0 0-5.8-8.29m-7.47 21.68a11.5 11.5 0 0 1-11.76 11.22h-1.28a11.49 11.49 0 0 1-11.75-11.23v-2.35a11.49 11.49 0 0 1 11.75-11.22h1.29a11.49 11.49 0 0 1 11.75 11.22ZM0 9.15l5.49 12.44 8.46-2.45-.02 63.9 16.54.01L30.49 0 0 9.15zm157.27 41.17a24.08 24.08 0 0 0-4.2-6.76 24.89 24.89 0 0 0-5.64-4.74l-.7-.43a27.41 27.41 0 0 0 4.54-4.34 19.5 19.5 0 0 0 4.23-12.79 19.6 19.6 0 0 0-2.08-9 20.52 20.52 0 0 0-5.48-6.7 24.9 24.9 0 0 0-7.89-4.15 33.12 33.12 0 0 0-19.32 0 25.16 25.16 0 0 0-7.88 4.14 20.31 20.31 0 0 0-5.48 6.71 19.47 19.47 0 0 0-2.08 9 19.46 19.46 0 0 0 4.2 12.74 28 28 0 0 0 4.51 4.39q-.41.24-.81.51a26.74 26.74 0 0 0-5.54 4.76 24.63 24.63 0 0 0-4.19 6.67 23.05 23.05 0 0 0-1.66 9 22.49 22.49 0 0 0 2.59 11.1 21.19 21.19 0 0 0 6.76 7.44 27.63 27.63 0 0 0 9.1 4 43.47 43.47 0 0 0 20.12 0 27.89 27.89 0 0 0 9.17-4 21.53 21.53 0 0 0 6.74-7.42 22.64 22.64 0 0 0 2.61-11.11 23.35 23.35 0 0 0-1.66-9.06m-35.16-32.5c2.59-3.51 7.16-3.68 8.26-3.67s5.7.16 8.29 3.68a7 7 0 0 1-.18 8.74 14.53 14.53 0 0 1-5.2 3.67 15.5 15.5 0 0 1-2.9 1.13 16.74 16.74 0 0 1-2.87-1.13 14.32 14.32 0 0 1-5.17-3.67 7 7 0 0 1-.19-8.75M140.82 64c-3.36 4.65-9.3 4.87-10.73 4.86s-7.41-.22-10.79-4.86a9.33 9.33 0 0 1 .25-11.55 18.75 18.75 0 0 1 6.76-4.85 20.54 20.54 0 0 1 3.76-1.5h.05a21.65 21.65 0 0 1 3.74 1.5 18.48 18.48 0 0 1 6.72 4.85 9.38 9.38 0 0 1 .24 11.55m79.37-13.68a24.06 24.06 0 0 0-4.19-6.76 25.11 25.11 0 0 0-5.64-4.74c-.23-.15-.47-.29-.71-.43a26.65 26.65 0 0 0 4.54-4.34 19.39 19.39 0 0 0 4.23-12.79 19.53 19.53 0 0 0-2.07-9 20.49 20.49 0 0 0-5.49-6.71A24.69 24.69 0 0 0 203 1.44a33.09 33.09 0 0 0-19.31 0 25.1 25.1 0 0 0-7.89 4.14 20.41 20.41 0 0 0-5.47 6.71 19.35 19.35 0 0 0-2.09 9A19.51 19.51 0 0 0 172.41 34a28 28 0 0 0 4.59 4.39q-.41.24-.81.51a27 27 0 0 0-5.54 4.76 24.6 24.6 0 0 0-4.18 6.67 23.05 23.05 0 0 0-1.67 9 22.6 22.6 0 0 0 2.59 11.1 21.38 21.38 0 0 0 6.76 7.44 27.72 27.72 0 0 0 9.1 4 43.47 43.47 0 0 0 20.12 0 27.85 27.85 0 0 0 9.18-4 21.53 21.53 0 0 0 6.74-7.42 22.61 22.61 0 0 0 2.6-11.11 23.35 23.35 0 0 0-1.66-9.06M185 17.83c2.59-3.52 7.15-3.69 8.25-3.68s5.7.16 8.3 3.68a7 7 0 0 1-.19 8.74 14.44 14.44 0 0 1-5.2 3.67 15.65 15.65 0 0 1-2.89 1.13 16.54 16.54 0 0 1-2.88-1.13 14.32 14.32 0 0 1-5.17-3.67 7 7 0 0 1-.18-8.74M204.39 64c-3.36 4.65-9.3 4.87-10.73 4.86s-7.4-.22-10.78-4.86a9.33 9.33 0 0 1 .24-11.55 18.75 18.75 0 0 1 6.76-4.85 20.38 20.38 0 0 1 3.77-1.5 21.85 21.85 0 0 1 3.75 1.5 18.48 18.48 0 0 1 6.72 4.85 9.37 9.37 0 0 1 .27 11.55" style="fill:#ff4000"/><path class="cls-2" d="M349.88 60.17a9.45 9.45 0 0 0-3.31-1.93 11.64 11.64 0 0 0-3.69-.6A9.71 9.71 0 0 0 338 58.8l-.17.11a12.16 12.16 0 0 1 1.61-2.82 11.94 11.94 0 0 1 9.56-4.46l1.67-5.78c-1.78-.15-10.47-1-16.38 6.64a22.26 22.26 0 0 0-4 10.92v.23a21.41 21.41 0 0 0-.07 4.57 16.22 16.22 0 0 0 .7 3.77 11 11 0 0 0 2.33 4.12 9.17 9.17 0 0 0 3.74 2.4 14.34 14.34 0 0 0 4.72.74 12.94 12.94 0 0 0 4.17-.7 10.93 10.93 0 0 0 3.66-2.07 10.11 10.11 0 0 0 2.55-3.47 11 11 0 0 0 1-4.78 11.87 11.87 0 0 0-.87-4.72 9.48 9.48 0 0 0-2.34-3.33Zm-3 8.74a4.64 4.64 0 0 1-4.74 4.53h-.52a4.64 4.64 0 0 1-4.74-4.53V68a4.64 4.64 0 0 1 4.74-4.53h.52a4.63 4.63 0 0 1 4.73 4.53Zm-30.04-14.46 3.41-.99v25.78h6.67l.01-33.5-12.3 3.69 2.21 5.02zm59.53 8.86a10 10 0 0 0-2.27-1.91l-.29-.17a10.51 10.51 0 0 0 1.83-1.76 8.45 8.45 0 0 0 .87-8.77 8.24 8.24 0 0 0-2.21-2.7 10.15 10.15 0 0 0-3.18-1.68 13.37 13.37 0 0 0-7.79 0 10.12 10.12 0 0 0-3.18 1.68 8.05 8.05 0 0 0-2.21 2.71 8.44 8.44 0 0 0 .85 8.74 11.12 11.12 0 0 0 1.84 1.79l-.33.2a11 11 0 0 0-2.24 1.92 9.86 9.86 0 0 0-1.68 2.64 9.39 9.39 0 0 0-.68 3.65 9.12 9.12 0 0 0 1.05 4.47 8.62 8.62 0 0 0 2.72 3 11.07 11.07 0 0 0 3.68 1.6 17.37 17.37 0 0 0 8.11 0 11.18 11.18 0 0 0 3.7-1.59 8.7 8.7 0 0 0 2.72-3 9 9 0 0 0 1.05-4.48 9.25 9.25 0 0 0-.67-3.65 9.58 9.58 0 0 0-1.69-2.69Zm-12.49-10.38a4.51 4.51 0 0 1 6.68 0 2.82 2.82 0 0 1-.08 3.53 5.81 5.81 0 0 1-2.09 1.48 6.61 6.61 0 0 1-1.17.46 8.27 8.27 0 0 1-1.16-.46 5.76 5.76 0 0 1-2.06-1.48 2.82 2.82 0 0 1-.12-3.53Zm7.55 18.64a5.37 5.37 0 0 1-4.33 2 5.44 5.44 0 0 1-4.35-2 3.76 3.76 0 0 1 .1-4.66 7.41 7.41 0 0 1 2.73-2 8 8 0 0 1 1.51-.61 8.31 8.31 0 0 1 1.51.61 7.53 7.53 0 0 1 2.71 2 3.78 3.78 0 0 1 .12 4.66ZM403.44 66a9.36 9.36 0 0 0-1.69-2.73 10 10 0 0 0-2.27-1.91l-.29-.17a10.51 10.51 0 0 0 1.81-1.72 8.45 8.45 0 0 0 .87-8.77 8.24 8.24 0 0 0-2.21-2.7 9.94 9.94 0 0 0-3.18-1.68 13.37 13.37 0 0 0-7.79 0 10.34 10.34 0 0 0-3.16 1.68 8.05 8.05 0 0 0-2.21 2.71 7.8 7.8 0 0 0-.84 3.61 7.88 7.88 0 0 0 1.69 5.13 11.12 11.12 0 0 0 1.83 1.78l-.33.2a11.24 11.24 0 0 0-2.24 1.92 10.1 10.1 0 0 0-1.67 2.65 9.21 9.21 0 0 0-.67 3.65 9.12 9.12 0 0 0 1 4.47 8.55 8.55 0 0 0 2.73 3 10.93 10.93 0 0 0 3.67 1.6 17.37 17.37 0 0 0 8.11 0 11.18 11.18 0 0 0 3.7-1.59 8.7 8.7 0 0 0 2.72-3 9 9 0 0 0 1.05-4.48 9.25 9.25 0 0 0-.63-3.65Zm-14.18-13.07a4.51 4.51 0 0 1 6.68 0 2.82 2.82 0 0 1-.08 3.53 5.81 5.81 0 0 1-2.09 1.48 7.45 7.45 0 0 1-1.17.46 8.27 8.27 0 0 1-1.16-.46 5.76 5.76 0 0 1-2.08-1.48 2.84 2.84 0 0 1-.1-3.53Zm7.81 18.64a5.37 5.37 0 0 1-4.33 2 5.45 5.45 0 0 1-4.35-2 3.78 3.78 0 0 1 .1-4.66 7.49 7.49 0 0 1 2.73-2 7.82 7.82 0 0 1 1.52-.61 8.49 8.49 0 0 1 1.5.61 7.45 7.45 0 0 1 2.72 2 3.79 3.79 0 0 1 .11 4.66ZM268.79 10.55l2.92-2.85c-1.5-1.61-3.31-3.61-4.92-5.34l-3.23 3.15c1.96 1.73 3.84 3.61 5.23 5.04Z"/><path class="cls-2" d="M243.28 33.29c-1.16-.12-2-.23-3.15-.42l-.89 4.3 4.46 1.23c3.26.88 5.57-.85 5.57-4.15v-9.72l5.05-1-.84-4.73-4.2 1v-6.08h3.54l.37 3.31 4.49-.48a70.08 70.08 0 0 0 1.15 10 45.44 45.44 0 0 1-7.18 3.82L253 34.1a49.84 49.84 0 0 0 7.1-3c.19.55.4 1.1.62 1.63 2.15 5.15 5.72 6.69 8.83 6s4.42-5.73 4.92-8.92l-3.88-1c-.46 2.31-1.23 4.77-2.11 5s-2.11-.88-3.11-3.46q-.35-.87-.66-1.95a41.07 41.07 0 0 0 9.49-8.88l-3.76-3.34a37.61 37.61 0 0 1-6.82 7.07c-.31-2-.57-4.37-.76-7.13l11.07-1.17-.57-4.61-10.75 1.26c-.11-2.74-.18-5.79-.2-9.24l-5 .19c0 3.6 0 6.8.13 9.69l-3.74.48V9.2h-4.47V2.25h-5v7h-4.69v4.53h4.69V21l-5.22 1.26.8 4.11 4.42-.87v6.83a.89.89 0 0 1-1.05.96Zm68.79-2.04h-14.48V10.7h12.45V5.51h-30.47v5.19h12.41v20.55H277.5v5.19h34.57v-5.19zM322.9 30a18.18 18.18 0 0 0 1.5-8V9.06h23.71V3.87h-26.55a2.5 2.5 0 0 0-2.73 2.69v14.57a22 22 0 0 1-1 7 53 53 0 0 1-3.49 8.07l3.76 2.15a56.09 56.09 0 0 0 4.8-8.35Zm-52.09 46.23h-1.2V59.9h-4.2c0-.89.07-1.82.08-2.8h8.58v-4.23h-8.57v-8.49h-4.38v8.49h-2.61v4.23h2.6c0 5.43-.44 9.09-1.48 12.25-.18.56-.37 1.09-.56 1.62l-3.17-5.5-3.34 2.13v-2.93h3.72a1.18 1.18 0 0 0 1.35-1.35v-8.6a1.17 1.17 0 0 0-1.35-1.35h-12.6c-.92 0-1.34.42-1.34 1.35v8.6c0 .92.42 1.35 1.34 1.35H248v2.74l-4.22-1.94-4.19 9.38 3.26 1.73L248 67.5v7.73a.78.78 0 0 1-.92.81l-2.19-.27-.69 3.53 4.34 1.08a3.23 3.23 0 0 0 4-3v-8.25l3.46 4.68 2.7-1.89a54.31 54.31 0 0 1-3.62 7.42l3 1.92a41 41 0 0 0 5.45-10.49 35 35 0 0 0 1.64-7.77l.06 15.75a1.47 1.47 0 0 0 1.54 1.65h6.34c1 0 1.5-.58 1.54-1.65l.23-6.73-3.5-.27Zm-24-18.63h6.38v2.84h-6.38Z"/><path class="cls-2" d="M266.12 48.3c2 1.73 3.26 3 4.65 4.38l2.92-2.84-4.34-4.69Zm-25.05 3.53h17.82v-4.22h-6l-.37-3.27-5.73.85.52 2.42h-6.24v4.22zm55.22 10.91h12.98v-5.18h-12.98V46.15h-5.61v28.12H277.5v5.19h34.58v-5.19h-15.79V62.74z"/></g></g></svg>