<svg xmlns="http://www.w3.org/2000/svg" width="126" height="86" viewBox="0 0 126 86" fill="none"><g clip-path="url(#clip0_233_9117)"><path d="M105.528 29.5971C105.457 29.5827 105.391 29.5511 105.335 29.5049C105.278 29.4588 105.233 29.3994 105.204 29.3318C104.967 28.6712 104.48 28.1804 104.123 27.6021C103.166 26.0501 101.807 25.3417 100.026 25.1613C96.5346 24.8058 93.0351 24.5538 89.533 24.3177C88.3545 24.2381 87.1734 24.1426 85.9949 24.0762C85.8263 24.0747 85.6628 24.0163 85.5295 23.9099C85.3961 23.8035 85.3002 23.6551 85.2564 23.4873C84.8395 22.3226 84.6723 21.0996 84.4278 19.8818C84.3455 19.4786 84.7109 19.659 84.8704 19.6696C86.3423 19.789 87.8141 19.9349 89.2885 20.0543C89.4965 20.1222 89.722 20.1031 89.9164 20.0012C88.8022 18.3696 87.5053 17.0829 85.4725 16.8627C83.1185 16.6121 80.7523 16.5032 78.386 16.5364C77.6141 16.5364 77.6141 16.5364 77.6141 15.7697C77.6193 15.668 77.6193 15.5662 77.6141 15.4646C77.5832 15.1993 77.6527 15.064 77.9666 15.0852C79.8913 15.2231 81.8264 15.3186 83.7485 15.4805C84.7083 15.5601 85.6552 15.7723 86.6124 15.8864C87.9634 16.0456 88.8845 16.9476 89.7929 17.8363C91.1148 19.1716 92.2269 20.7112 93.0891 22.3995C93.1656 22.5822 93.2904 22.739 93.4491 22.852C93.6079 22.9651 93.7944 23.0298 93.9871 23.0389C96.2027 23.2461 98.4031 23.6006 100.574 24.1001C101.225 24.2566 101.861 24.4795 102.494 24.6944C103.971 25.1905 104.493 26.5515 105.085 27.8223C105.338 28.3807 105.488 28.9824 105.528 29.5971Z" fill="#056FB8"/><path d="M72.9287 12.0898C73.8915 12.026 74.8582 12.1082 75.7978 12.3339C76.4565 12.4931 76.7138 13.2386 76.9017 13.8832C77.0918 14.5062 77.1677 15.1603 77.1255 15.812C76.8013 20.2478 76.4797 24.6854 76.1606 29.1248C76.1323 29.5121 76.0088 29.6289 75.6254 29.6262C74.0403 29.6262 74.0506 29.6262 74.1484 28.0344C74.3868 24.0566 74.6218 20.0816 74.8534 16.1091C74.9306 14.8224 74.3388 13.8089 73.5849 12.8592C73.3919 12.6098 73.1783 12.379 72.9287 12.0898Z" fill="#056FB8"/><path d="M73.8498 15.069L69.1229 14.9629L67.7746 17.6159L71.4773 17.6769C71.2663 21.094 70.816 23.999 70.5304 27.4108C70.4867 27.9414 70.3066 28.0582 69.8125 28.0661C66.1586 28.1351 42.537 28.549 42.3389 28.6975C42.4006 29.13 42.6862 29.1724 43.031 29.1751C45.141 29.1936 47.251 29.2122 49.361 29.2467C57.0102 29.374 64.6593 29.5058 72.3085 29.642C72.6584 29.642 72.8694 29.642 72.9029 29.1645C73.2039 24.726 73.8498 15.069 73.8498 15.069Z" fill="#056FB8"/><path d="M102.492 31.446H100.59C99.7717 29.6155 98.2947 28.3871 96.617 28.3871C95.2044 28.3871 93.9306 29.2096 93.0558 30.544H91.3086C92.2143 28.2412 94.3115 26.6255 96.7585 26.6255C99.5118 26.6149 101.83 28.6657 102.492 31.446Z" fill="#056FB8"/><path d="M52.1836 0L57.2784 1.43528L64.1719 5.69071L61.4418 6.29029L78.2368 8.09434L83.4732 10.8163L67.2211 10.949L69.6296 11.4637L62.4556 13.3181L58.722 12.7822L63.3202 10.4953L32.7305 8.39147L58.4569 7.99087L52.1836 0Z" fill="#BD3030"/><path d="M59.6097 11.1584L41.3042 10.4209L56.9516 12.4876L59.6097 11.1584Z" fill="#BD3030"/><path d="M40.6662 23.6597H44.8836L43.0721 28.321H39.1558L40.6662 23.6597Z" fill="#056FB8"/><path d="M39.457 14.9604H43.9781L44.485 20.2452H40.265L39.457 14.9604Z" fill="#BD3030"/><path d="M35.8545 19.9321H70.8418L70.5407 20.5556H35.8545V19.9321Z" fill="#BD3030"/><path d="M68.7293 21.7998L68.4257 22.4233L36.4027 22.3888L36.3384 21.7998H68.7293Z" fill="#056FB8"/><path d="M48.499 14.9604H53.0201L48.5582 20.1577H44.3408L48.499 14.9604Z" fill="#BD3030"/><path d="M50.2823 23.8188H54.5023L52.9996 28.4802H48.4785L50.2823 23.8188Z" fill="#056FB8"/><path d="M53.6041 15.1196H57.8137L55.9173 20.0304H52.001L53.6041 15.1196Z" fill="#BD3030"/><path d="M60.2147 21.9829H64.1311L62.0314 28.4801H57.814L60.2147 21.9829Z" fill="#056FB8"/><path d="M62.6361 15.1196H66.8561L65.6544 18.8551H61.437L62.6361 15.1196Z" fill="#BD3030"/><path d="M47.6394 2.09837C47.6394 2.09837 22.5125 0.636566 19.7978 14.8169C16.6071 31.4699 50.3824 52.1899 81.196 35.2106C81.196 35.2106 64.6042 44.7323 40.9569 34.3033C16.4372 23.4869 19.7232 3.32407 47.6394 2.09837Z" fill="#BD3030"/><path d="M52.472 3.96115L50.7685 4.51032C50.7685 4.51032 31.5213 6.54252 32.5583 17.5923C33.5515 28.1805 52.0603 42 78.2576 35.7018C78.2576 35.7018 62.9293 42.6871 42.4264 32.9771C21.9234 23.2671 21.5735 3.41728 52.472 3.96115Z" fill="#BD3030"/><path d="M57.855 63.4547C58.8648 64.6408 60.1609 65.5304 61.6118 66.0334C61.2576 66.3608 60.9516 66.7397 60.7035 67.1583C60.3037 67.0088 59.9185 66.8204 59.5533 66.5958V66.7046H49.5848C49.2096 66.9659 48.8147 67.1957 48.4038 67.3917C48.1529 66.9838 47.8519 66.6111 47.5083 66.2828C48.9254 65.6668 50.1701 64.6945 51.1287 63.4547H47.8274V62.2528H50.4932C50.1536 61.6106 49.7472 61.0084 49.2812 60.4568L50.434 59.9102C50.9923 60.4801 51.4572 61.1395 51.8106 61.8629L51.0232 62.2528H54.0364C53.7917 61.5335 53.4551 60.8509 53.0355 60.2233L54.2165 59.7378C54.6858 60.3708 55.0637 61.0705 55.3384 61.8151L54.2937 62.2528H57.0341L56.7768 62.1282C57.3589 61.4146 57.8669 60.6401 58.2924 59.8174L59.7154 60.3798C59.2471 61.0351 58.717 61.7063 58.2461 62.2528H61.2618V63.4547H57.855ZM49.8576 70.57H59.3243V74.019H57.9476V73.5679H51.1751V74.019H49.8576V70.57ZM59.0515 68.307H50.1767V67.4156H59.0541L59.0515 68.307ZM50.1741 69.0233H59.0515V69.9147H50.1767L50.1741 69.0233ZM58.3259 65.7283C57.5495 65.0933 56.883 64.3272 56.3548 63.4626H52.6598C52.1554 64.3075 51.5328 65.0709 50.8122 65.7283H53.9309C53.7476 65.2816 53.5352 64.8482 53.2953 64.431L54.5536 64.0569C54.8696 64.5929 55.1482 65.1515 55.3873 65.7283H58.3259ZM51.1751 71.5649V72.581H57.9476V71.5649H51.1751Z" fill="#BD3030"/><path d="M66.9303 63.6722C66.4256 64.1523 65.8891 64.5955 65.3247 64.9987C65.0051 64.6158 64.6612 64.255 64.2954 63.9189C65.9734 62.8482 67.3929 61.3975 68.4459 59.6768L69.766 60.1596C69.3403 60.8714 68.8583 61.5458 68.325 62.1759V67.5482H66.9329L66.9303 63.6722ZM77.9666 70.7027H71.9428V74.0455H70.4581V70.7027H64.4447V69.2966H70.4581V67.5164H71.9428V69.2966H77.9666V70.7027ZM71.5903 64.2691C70.893 64.4867 70.2111 64.6909 69.5318 64.8607C69.4179 64.4564 69.2444 64.0725 69.0172 63.7226C69.8663 63.4865 70.7438 63.2212 71.5903 62.94V59.9261H72.9978V62.4094C74.2153 61.9438 75.3794 61.3415 76.469 60.6133L77.4983 61.7381C76.0775 62.6004 74.568 63.2971 72.9978 63.8155V65.2826C72.9978 65.8132 73.1214 65.8928 73.7698 65.8928H75.921C76.4665 65.8928 76.572 65.6275 76.6311 64.2373C77.0121 64.4878 77.4328 64.6674 77.874 64.7679C77.7222 66.625 77.3439 67.1556 76.0419 67.1556H73.6025C71.9969 67.1556 71.5877 66.7497 71.5877 65.2985L71.5903 64.2691Z" fill="#BD3030"/><path d="M42.7352 66.8613H24.5918V67.2036H42.7352V66.8613Z" fill="#BD3030"/><path d="M100.523 66.8613H82.3799V67.2036H100.523V66.8613Z" fill="#BD3030"/><path d="M9.23765 46.1117L5.46539 54.994H3.63073L0 46.1117H2.05853L4.59824 52.7947L7.1714 46.1091L9.23765 46.1117ZM16.5969 46.1117V47.7036H14.209C12.9687 47.7036 12.503 47.8495 12.1273 48.3562C11.87 48.717 11.8185 48.916 11.7542 49.7941H16.5969V51.3859H11.7542C11.8829 52.9035 12.5261 53.4234 14.2862 53.4234H16.602V55.0153H14.209C12.3743 55.0153 11.4943 54.7632 10.8099 54.0177C10.0739 53.2218 9.67251 51.9935 9.67251 50.5131C9.67251 48.9425 10.1871 47.6903 11.1341 46.8519C11.7413 46.3213 12.3357 46.133 13.4962 46.133L16.5969 46.1117ZM19.8828 51.6247V54.994H18.0482V46.1117H22.2604C23.565 46.1117 24.3189 46.2577 24.8336 46.6291C25.1371 46.849 25.3832 47.1428 25.5502 47.4843C25.7172 47.8259 25.7998 48.2046 25.7908 48.587C25.7908 49.9454 25.2607 50.7864 24.1491 51.1843C25.1578 51.4655 25.6493 52.2641 25.7136 53.649C25.7779 54.4767 25.8037 54.6624 25.9195 54.994H23.8609C23.8084 54.8396 23.7738 54.6793 23.758 54.5165C23.7297 54.2751 23.6911 53.9036 23.6782 53.7206C23.511 52.1102 22.968 51.6167 21.3418 51.6167L19.8828 51.6247ZM19.8828 50.0329H22.456C23.4003 50.0329 23.776 49.6721 23.776 48.8072C23.7982 48.5829 23.7479 48.3572 23.633 48.1653C23.5181 47.9735 23.3449 47.8261 23.1404 47.746C22.9157 47.6953 22.6859 47.673 22.456 47.6797H19.8828V50.0329ZM26.4572 54.9861L30.0236 46.1038H32.1285L35.6949 54.9861H33.5489L32.7229 52.922H29.4421L28.6161 54.9861H26.4572ZM31.0889 48.2342L29.8487 51.3461H32.3009L31.0889 48.2342ZM46.3941 53.4022V54.994H43.3912C41.9039 54.994 41.1937 54.7818 40.5221 54.1159C39.7862 53.3837 39.3848 52.158 39.3848 50.5715C39.3848 48.5737 40.0693 47.096 41.2838 46.5097C41.9794 46.2298 42.7219 46.0945 43.4684 46.1117H46.3864V47.7036H43.6871C42.8354 47.7036 42.2281 47.9423 41.8525 48.4225C41.5694 48.7833 41.4125 49.4837 41.4125 50.407C41.4125 51.7123 41.6852 52.6329 42.2024 53.0175C42.5455 53.2846 43.0601 53.4181 43.7463 53.4181L46.3941 53.4022ZM54.6437 46.1038V54.9861H52.8013V51.3249H49.4819V54.9861H47.6472V46.1117H49.4819V49.7464H52.8013V46.1117L54.6437 46.1038ZM56.3986 54.9861V46.1117H58.2332V54.994L56.3986 54.9861ZM61.7379 48.4729V54.9861H59.9933V46.1117H62.3323L65.77 52.731V46.1117H67.512V54.994H65.2657L61.7379 48.4729ZM68.3895 54.9861L71.9559 46.1038H74.0607L77.6271 54.9861H75.4811L74.6551 52.922H71.3666L70.5381 54.9861H68.3895ZM73.0212 48.2342L71.7912 51.3461H74.246L73.0212 48.2342ZM84.9426 49.7119H89.1806V54.9861H85.3209C83.9906 54.9861 83.3061 54.8136 82.6731 54.2936C81.7957 53.5879 81.317 52.2959 81.317 50.5794C81.317 48.8629 81.7957 47.5842 82.6602 46.8652C83.2804 46.3585 84.1733 46.1064 85.4007 46.1064H89.1729V47.6982H85.6116C83.97 47.6982 83.3241 48.4703 83.3241 50.4149C83.3241 51.5212 83.5583 52.4524 83.9442 52.8796C84.2813 53.2404 84.8371 53.4102 85.676 53.4102H87.3305V51.3063H84.9272L84.9426 49.7119ZM92.5695 51.6167V54.9861H90.7348V46.1117H94.9471C96.2517 46.1117 97.0056 46.2577 97.5202 46.6291C97.8237 46.849 98.0699 47.1428 98.2369 47.4843C98.4039 47.8259 98.4865 48.2046 98.4775 48.587C98.4775 49.9454 97.9474 50.7864 96.8358 51.1843C97.8445 51.4655 98.3334 52.2641 98.3977 53.649C98.4646 54.4767 98.4903 54.6624 98.6061 54.994H96.5476C96.493 54.8401 96.4575 54.6796 96.4421 54.5165C96.4164 54.2751 96.3778 53.9036 96.3649 53.7206C96.1976 52.1102 95.6547 51.6167 94.0259 51.6167H92.5695ZM92.5695 50.0249H95.1426C96.087 50.0249 96.4601 49.6641 96.4601 48.7993C96.4829 48.5751 96.4332 48.3496 96.3187 48.1576C96.2042 47.9657 96.0314 47.8182 95.8271 47.738C95.6024 47.6873 95.3726 47.6651 95.1426 47.6717H92.5695V50.0249ZM103.732 46.0269C105.217 46.0269 106.47 46.5336 107.103 47.4011C107.633 48.1068 107.944 49.2901 107.944 50.6245C107.944 53.5269 106.534 55.0312 103.827 55.0312C102.173 55.0312 100.868 54.474 100.196 53.4739C99.6817 52.7416 99.4475 51.768 99.4475 50.5555C99.4475 48.8656 99.9004 47.5736 100.752 46.8811C101.403 46.3505 102.463 46.0428 103.716 46.0428L103.732 46.0269ZM103.68 47.5338C102.865 47.5338 102.206 47.8521 101.859 48.4252C101.586 48.8656 101.457 49.5713 101.457 50.5157C101.457 52.5957 102.155 53.5402 103.706 53.5402C105.258 53.5402 105.927 52.5957 105.927 50.5025C105.911 48.4676 105.214 47.5497 103.665 47.5497L103.68 47.5338ZM110.988 46.0958V51.4231C110.988 52.288 111.117 52.7151 111.464 53.0467C111.888 53.3876 112.414 53.5667 112.951 53.5534C113.79 53.5534 114.449 53.2351 114.683 52.7018C114.811 52.2892 114.864 51.8555 114.838 51.4231V46.1117H116.672V51.3461C116.672 52.7708 116.387 53.6357 115.741 54.1955C115.056 54.7818 114.153 55.0604 112.91 55.0604C111.529 55.0604 110.558 54.742 109.938 54.1026C109.318 53.4632 109.151 52.8371 109.151 51.4788V46.1117L110.988 46.0958ZM120.161 51.8767V54.9781H118.327V46.1117H122.629C124.142 46.1117 124.67 46.2709 125.238 46.9236C125.768 47.5367 126.046 48.3386 126.012 49.1592C125.979 49.9798 125.637 50.7547 125.058 51.3196C124.544 51.7574 124.091 51.8927 123.108 51.8927L120.161 51.8767ZM120.161 50.2849H122.655C123.146 50.2849 123.427 50.2186 123.625 50.0196C123.758 49.869 123.859 49.692 123.923 49.4995C123.988 49.307 124.013 49.103 123.998 48.9001C123.998 48.3138 123.766 47.8866 123.365 47.7407C123.147 47.678 122.92 47.6511 122.693 47.6611H120.161V50.2849Z" fill="#BD3030"/><path d="M39.8662 84.7505V85.9576H37.5812C36.449 85.9576 35.9061 85.7958 35.394 85.2864C34.8331 84.7293 34.5269 83.7954 34.5269 82.5856C34.5269 81.0628 35.0415 79.9326 35.9755 79.4896C36.5054 79.2752 37.0713 79.1715 37.6404 79.1845H39.8662V80.3863H37.8076C37.1566 80.3863 36.6935 80.5693 36.4078 80.9355C36.1917 81.2008 36.0733 81.7473 36.0733 82.4477C36.0733 83.4452 36.2818 84.1456 36.6754 84.4401C37.0273 84.6692 37.4415 84.7753 37.8565 84.7425L39.8662 84.7505ZM40.3602 85.9603L43.0775 79.1871H44.6831L47.4004 85.9576H45.7664L45.136 84.3844H42.6349L42.0045 85.9576L40.3602 85.9603ZM43.8854 80.8108L42.9488 83.1772H44.8221L43.8854 80.8108ZM49.5052 83.3921V85.9576H48.1183V79.1871H51.3296C52.3228 79.1871 52.9044 79.2986 53.2981 79.5824C53.5294 79.7502 53.717 79.9744 53.844 80.235C53.9711 80.4956 54.0337 80.7845 54.0263 81.0761C54.0263 82.1107 53.6223 82.7501 52.7757 83.0552C53.5477 83.2701 53.9182 83.8777 53.9671 84.9335C53.9691 85.2822 54.0229 85.6284 54.1266 85.9603H52.5596C52.5193 85.8418 52.4926 85.719 52.4798 85.5941C52.4618 85.4111 52.4309 85.1272 52.4206 84.9946C52.2945 83.7662 51.8803 83.4028 50.64 83.4028L49.5052 83.3921ZM49.5052 82.1824H51.4634C52.1813 82.1824 52.4669 81.9171 52.4669 81.2485C52.4813 81.08 52.4421 80.9112 52.3553 80.7677C52.2685 80.6241 52.1388 80.5135 51.9858 80.4526C51.8171 80.4127 51.6441 80.3949 51.4711 80.3995H49.5104L49.5052 82.1824ZM57.5026 81.9383H60.7268V85.9576H57.7985C56.7847 85.9576 56.2546 85.825 55.7786 85.427C55.1096 84.8964 54.7493 83.9042 54.7493 82.5936C54.7493 81.283 55.1147 80.3094 55.7786 79.7602C56.2495 79.3755 56.9288 79.1818 57.8654 79.1818H60.7268V80.3863H58.025C56.7744 80.3863 56.2829 80.9753 56.2829 82.4583C56.2829 83.3019 56.4579 84.013 56.7538 84.3366C57.0111 84.6019 57.4331 84.7425 58.0739 84.7425H59.3347V83.1507H57.5026V81.9383ZM64.8438 79.1367C65.9786 79.1367 66.9333 79.5214 67.417 80.182C67.821 80.7126 68.0577 81.6252 68.0577 82.6387C68.0577 84.854 66.9847 86.0001 64.9159 86.0001C63.655 86.0001 62.6618 85.5756 62.1497 84.8115C61.7395 84.1537 61.5398 83.3799 61.5785 82.5989C61.5785 81.3095 61.9233 80.3253 62.5717 79.7973C63.0709 79.3702 63.8789 79.1367 64.8438 79.1367ZM64.8053 80.2828C64.5364 80.2639 64.2673 80.3167 64.0239 80.4361C63.7805 80.5555 63.5711 80.7376 63.4157 80.9646C63.2099 81.2989 63.1121 81.8375 63.1121 82.5564C63.1121 84.1483 63.6422 84.8619 64.8258 84.8619C66.0095 84.8619 66.519 84.1403 66.519 82.5458C66.519 80.9514 65.976 80.2828 64.795 80.2828H64.8053ZM76.809 79.1871V80.3863H72.8001V81.9383H74.8792C75.7283 81.9383 76.1658 82.0497 76.5054 82.3336C76.721 82.525 76.8917 82.7644 77.0045 83.0337C77.1172 83.303 77.1692 83.5952 77.1564 83.8883C77.1753 84.2727 77.0796 84.6538 76.8823 84.9806C76.685 85.3073 76.3954 85.564 76.0525 85.7162C75.6485 85.8886 75.1571 85.9603 74.2796 85.9603H71.4003V84.7611H74.2771C74.5853 84.7681 74.8932 84.7342 75.1931 84.6603C75.3255 84.6036 75.4375 84.5055 75.5131 84.3799C75.5888 84.2543 75.6245 84.1074 75.6151 83.9599C75.6277 83.7988 75.5897 83.6379 75.5067 83.5008C75.4238 83.3637 75.3003 83.2577 75.1545 83.1985C74.9847 83.1481 74.9847 83.1481 74.2771 83.1375H71.4003V79.1871H76.809ZM78.8676 82.5777C78.1394 82.1214 77.8821 81.6942 77.8821 80.9328C77.859 80.5702 77.9569 80.2103 78.1596 79.9131C78.3622 79.6158 78.6575 79.3989 78.9962 79.2985C79.3204 79.1871 79.7682 79.1473 80.818 79.1473C82.3336 79.1473 82.7196 79.1765 83.103 79.349C83.4082 79.4986 83.6642 79.7371 83.8394 80.0351C84.0145 80.3331 84.1011 80.6775 84.0885 81.0257C84.106 81.3617 84.0174 81.6945 83.836 81.9743C83.6546 82.2541 83.3902 82.4658 83.0824 82.5777C83.3247 82.6955 83.5397 82.8656 83.7128 83.0764C83.9358 83.3826 84.0567 83.7548 84.0576 84.1376C84.0446 84.6594 83.8329 85.155 83.4684 85.5172C83.0927 85.8727 82.5112 85.9948 81.1525 85.9948C80.7974 85.9948 80.1464 85.9947 79.8428 85.9656C79.1738 85.9443 78.7492 85.7825 78.4044 85.435C78.071 85.1006 77.8795 84.6437 77.8718 84.1642C77.8751 83.7834 77.9919 83.413 78.2063 83.103C78.3828 82.8857 78.5998 82.7071 78.8444 82.5777H78.8676ZM80.9647 80.2828C80.5912 80.2576 80.2162 80.2925 79.8531 80.3863C79.5572 80.4977 79.4182 80.7497 79.4182 81.1557C79.4182 81.5616 79.5958 81.8587 79.9329 81.9516C80.2834 81.9874 80.6356 82.0042 80.9879 82.002C81.6389 82.002 82.0326 81.9728 82.1689 81.9012C82.2993 81.8359 82.4066 81.7302 82.4758 81.5989C82.5451 81.4676 82.5727 81.3172 82.5549 81.1689C82.575 80.983 82.5262 80.7961 82.4184 80.6456C82.3106 80.4951 82.1517 80.392 81.9734 80.3571C81.6316 80.3073 81.2868 80.2824 80.9415 80.2828H80.9647ZM80.9647 83.1056C80.584 83.0849 80.2025 83.1225 79.8325 83.2171C79.6927 83.2864 79.5775 83.3992 79.5032 83.5396C79.4288 83.68 79.3991 83.8409 79.4182 83.9997C79.4182 84.448 79.5855 84.7213 79.9329 84.8115C80.2748 84.8483 80.6184 84.866 80.9621 84.8646C81.3561 84.8941 81.7521 84.8592 82.1355 84.7611C82.263 84.6883 82.3666 84.5781 82.433 84.4443C82.4995 84.3106 82.5258 84.1595 82.5086 84.0103C82.5316 83.8232 82.4872 83.634 82.3838 83.4784C82.2804 83.3229 82.1252 83.212 81.9477 83.1666C81.6175 83.1229 81.2847 83.1025 80.9518 83.1056H80.9647ZM90.4108 79.1871V80.3863L86.4224 85.9576H84.7087L88.8257 80.3863H84.6572V79.1871H90.4108Z" fill="#BD3030"/></g><defs><clipPath id="clip0_233_9117"><rect width="126" height="86" fill="white"/></clipPath></defs></svg>